# xmcd CD database file
#
# Track frame offsets:
#	150
#	11802
#	27120
#	45617
#	59912
#	78480
#	92962
#	108430
#	121400
#	142110
#	151910
#	168162
#	184525
#	200952
#
# Disc length: 2689 seconds
#
# Revision: 0
# Processed by: cddbd v1.5.1PL2 Copyright (c) Steve Scherf et al.
# Submitted via: CDex 1.51
#
DISCID=c40a7f0e
DTITLE=Pensacola Company - Texacana Cover
DYEAR=1991
DGENRE=Country
TTITLE0=Reubens James
TTITLE1=Jolene
TTITLE2=Pensacola Commpany
TTITLE3=Texacana Cover
TTITLE4=Out Anomg the Stars
TTITLE5=Blanket on the Ground
TTITLE6=Mountain Music
TTITLE7=Jombolaya on the Bayon
TTITLE8=Good Hearted Woman
TTITLE9=Country Landies
TTITLE10=Willy
TTITLE11=Closer I am to find
TTITLE12=The Fans
TTITLE13=Unbenannt
EXTD=YEAR: 1991
EXTT0=
EXTT1=
EXTT2=
EXTT3=
EXTT4=
EXTT5=
EXTT6=
EXTT7=
EXTT8=
EXTT9=
EXTT10=
EXTT11=
EXTT12=
EXTT13=
PLAYORDER=
